Coordinates
version=1
nRows=14
nColumns=24
inDegrees=yes

Units are S.I. units (second, meters, Newtons, ...)
Angles are in degrees.

endheader
time	pelvis_tilt	pelvis_list	pelvis_rotation	pelvis_tx	pelvis_ty	pelvis_tz	hip_flexion_r	hip_adduction_r	hip_rotation_r	knee_angle_r	ankle_angle_r	subtalar_angle_r	mtp_angle_r	hip_flexion_l	hip_adduction_l	hip_rotation_l	knee_angle_l	ankle_angle_l	subtalar_angle_l	mtp_angle_l	lumbar_extension	lumbar_bending	lumbar_rotation
      3.81500000	     -4.58636904	      3.07946305	      5.36645748	     -0.33543327	     -0.03453460	     -0.15849358	     34.98411106	     -3.50857379	     -2.16821996	    -16.11368474	      0.92750091	      8.29248687	      9.77368636	     -8.99065716	      6.23239375	     -6.36749944	    -24.29715692	     16.79264441	     22.37859911	    -13.50993241	      1.41493944	     -5.10315397	    -11.18073273
      3.82000000	     -4.58064660	      2.85505251	      5.37111719	     -0.32761974	     -0.03486580	     -0.15762268	     34.88752183	     -3.17894072	     -2.27729207	    -16.77623494	      0.16555229	      7.88351994	     10.69016815	     -9.05753823	      5.76226150	     -6.50338652	    -24.86232270	     14.75261572	     22.16844698	     -8.36794765	      1.57513426	     -4.87507598	    -11.14608400
      3.82500000	     -4.64109023	      2.54694134	      5.34844614	     -0.31971402	     -0.03523631	     -0.15669692	     34.88739569	     -2.75991839	     -2.43168002	    -17.54796633	     -0.37803286	      7.75206765	     10.85246770	     -8.94205008	      5.16949808	     -6.81670157	    -25.72654423	     13.21262885	     22.22629393	     -5.23937702	      1.83057317	     -4.55700943	    -11.05789256
      3.83000000	     -4.73288168	      2.20816500	      5.30953598	     -0.31186262	     -0.03561996	     -0.15565336	     34.94295923	     -2.29853101	     -2.57838511	    -18.33534014	     -0.96693264	      7.62732512	     11.00864440	     -8.65247516	      4.48921052	     -7.32035269	    -26.95436130	     12.17396062	     22.61472272	     -4.31880441	      2.10978126	     -4.22833673	    -10.96205731
      3.83500000	     -4.75435755	      1.81964529	      5.19772553	     -0.30388646	     -0.03573433	     -0.15470028	     34.86700751	     -1.74131803	     -2.53325429	    -18.97639735	     -1.94787367	      7.23041391	     11.59173059	     -8.56055811	      3.82798767	     -7.58899760	    -27.63763750	      9.74548679	     22.27436977	      1.01428231	      2.33845661	     -3.79494728	    -10.78409674
      3.84000000	     -4.84868124	      1.42538604	      5.09261322	     -0.29598933	     -0.03592934	     -0.15360540	     34.94154489	     -1.17368985	     -2.55784121	    -19.80390815	     -2.57914529	      7.07023918	     11.28804293	     -8.24755829	      3.09226500	     -8.04128875	    -28.66598195	      7.73081863	     22.30123532	      4.48357105	      2.62539035	     -3.38464543	    -10.57843959
      3.84500000	     -4.97454157	      1.04619799	      4.89095366	     -0.28813944	     -0.03614202	     -0.15237829	     35.05527315	     -0.52910937	     -2.25198696	    -20.60237356	     -3.40162581	      6.62086674	     11.09384249	     -7.84648459	      2.37871011	     -8.54339053	    -29.80399939	      5.71333035	     22.26720130	      7.20246993	      2.93590452	     -2.98359759	    -10.22332897
      3.85000000	     -5.13147640	      0.64169669	      4.73225662	     -0.28023158	     -0.03631855	     -0.15119402	     35.20119110	      0.10895087	     -2.03971455	    -21.44736452	     -4.05639431	      6.34189559	     10.72506159	     -7.36670240	      1.60779990	     -9.03160953	    -30.94125765	      3.35891991	     22.17248692	     10.50722152	      3.28980176	     -2.56824816	     -9.98037957
      3.85500000	     -5.22422009	      0.22123880	      4.59672208	     -0.27226557	     -0.03637787	     -0.15012084	     35.24372838	      0.74321010	     -1.85337115	    -22.27173743	     -4.53784898	      6.21772125	     10.39573862	     -6.93467682	      0.82014124	     -9.43402438	    -32.05413337	      0.75628373	     21.89670662	     13.84719050	      3.58113746	     -2.11958888	     -9.77414775
      3.86000000	     -5.31987898	     -0.18384404	      4.42871113	     -0.26438207	     -0.03648217	     -0.14902817	     35.29990759	      1.39198024	     -1.57361597	    -23.11782088	     -4.96217438	      6.05344183	     10.07011161	     -6.43050361	      0.04754789	     -9.83332840	    -33.27934696	     -1.88846116	     21.51580856	     16.58251164	      3.85721097	     -1.68192253	     -9.51868716
      3.86500000	     -5.46348357	     -0.61064662	      4.25202242	     -0.25646774	     -0.03666154	     -0.14789274	     35.38078722	      2.07591971	     -1.26982935	    -23.92334282	     -5.33152880	      5.81926642	      9.78291275	     -5.81852194	     -0.76349331	    -10.23324391	    -34.59481247	     -4.55826841	     21.09765268	     18.74781102	      4.19281188	     -1.22719238	     -9.25664141
      3.87000000	     -5.63240879	     -1.02820545	      4.07498739	     -0.24861741	     -0.03687076	     -0.14675861	     35.45996901	      2.76588986	     -0.90826481	    -24.67499400	     -5.70285695	      5.40120358	      9.52346555	     -5.11180016	     -1.54967739	    -10.54790890	    -36.00492026	     -7.27559496	     20.46993144	     20.08711124	      4.54485540	     -0.78683111	     -8.99786863
      3.87500000	     -5.73582161	     -1.41741408	      3.88888383	     -0.24085286	     -0.03701270	     -0.14567350	     35.43482398	      3.43180078	     -0.55823780	    -25.36588532	     -5.97552705	      4.97739147	      9.36352584	     -4.43881128	     -2.28326483	    -10.79692781	    -37.41159624	    -10.16181865	     19.53760200	     21.06037717	      4.80378990	     -0.36187014	     -8.73770154
      3.88000000	     -5.72467858	     -1.88111195	      3.75215104	     -0.23313090	     -0.03706891	     -0.14470735	     35.23039883	      4.12723103	     -0.37235879	    -25.96132780	     -6.09295311	      4.65673161	      9.30623391	     -3.80523410	     -3.10435990	    -11.01186711	    -38.97481757	    -12.82480522	     18.47643191	     20.64030412	      4.93709820	      0.14866621	     -8.53017362
